<svg xmlns="http://www.w3.org/2000/svg" viewBox="0 0 1328.576 509.807"><path d="M207.957 3.307l-44.37 74.756c10.783 31.971 31.34 56.108 59.58 73.631l32.004-54.932 48.186 84.972c31.775 6.557 67.269 9.409 105.703 9.096L301.415 2.984l-93.458.323zm645.636-1.964L436.766 2.562l.192 69.783 156.302-.493.349 100.648a2060.97 2060.97 0 0 0 99.458-19.753l-.271-81.252 161.018-.451-.221-69.701zM363.165 287.275l32.478 57.257 101.219-.328-36.372-63.472c-34.393 3.725-66.832 5.67-97.325 6.543zm-209.273-15.511C115.05 264.3 84.68 255.541 62.564 247.93l-28.002 47.226-30.65 50.543 105.749-.322 44.231-73.613zm775.162-98.3c0-.1.111-.1.266-.124-.537-1.627-.432-1.727-.266.124zm-.238 169.516l344.365-.996c34.408-.167 52.877-14.121 55.395-42.121l-.392-128.15c-2.707-23.952-21.366-35.886-56.08-35.748l-260.459.788c-28.251 12.896-55.25 25.381-82.326 36.588 1.985 6.083 13.034 33.081 64.044 35.554l250.218-.664.242 62.651-315.161.883.154 71.215zM1327.725 0l-78.168.228c-45.85 26.761-90.584 51.235-133.995 73.565l212.36-.617L1327.725 0zM693.303 241.041c-34.407 9.248-67.612 17.077-99.502 23.559l.306 79.425 99.51-.327-.314-102.657zM992.709.977c-43.248 2.098-64.86 15.691-64.706 40.759l.083 47.615c96.931-29.879 187.172-61.826 259.633-88.934l-195.01.56zM0 507.557v-86.21h42.711v7.351H7.832v26.96h34.879v7.335H7.832v37.182h34.879v7.383H0zm64.357-14.524l6.705-3.559c1.196 4.208 3.412 7.501 6.479 9.85 3.07 2.311 6.793 3.474 11.127 3.474 5.44 0 9.687-1.595 12.771-4.798 3.063-3.264 4.579-7.682 4.579-13.361 0-4.18-1.051-7.62-3.11-10.314-2.088-2.805-6.47-5.97-13.262-9.604-8.686-4.607-14.437-8.616-17.305-12.142-2.873-3.483-4.299-7.691-4.299-12.584 0-6.107 2.083-11.089 6.201-14.951 4.192-3.801 9.542-5.75 16.057-5.75 4.382 0 8.147.92 11.336 2.756 3.182 1.817 5.784 4.546 7.755 8.199l-6.052 3.64c-1.207-2.458-2.989-4.337-5.319-5.628-2.282-1.333-5.006-1.992-8.142-1.992-4.23 0-7.599 1.281-10.08 3.781-2.517 2.482-3.805 5.859-3.805 10.055 0 6.083 4.968 11.701 14.935 16.906 1.819.982 3.181 1.66 4.111 2.178 7.402 4.07 12.296 7.877 14.737 11.487 2.489 3.554 3.687 8.257 3.687 13.964 0 7.739-2.247 13.846-6.745 18.387-4.541 4.531-10.669 6.781-18.434 6.781-5.627 0-10.472-1.405-14.505-4.205-4.003-2.805-7.168-7.023-9.422-12.57zm75.641 14.524v-86.21h15.713c6.209 0 10.776.327 13.689.997 2.906.692 5.442 1.803 7.608 3.297 2.748 1.984 4.854 4.637 6.323 8.062 1.478 3.396 2.216 7.188 2.216 11.363 0 8.156-2.292 14.211-6.871 18.031-4.619 3.871-11.879 5.779-21.772 5.779h-9.07v38.68h-7.836zm7.837-45.613h5.352c9.511 0 15.903-1.19 19.165-3.593 3.26-2.447 4.885-6.633 4.885-12.73 0-2.472-.349-4.849-1.079-7.012-.783-2.117-1.9-4.043-3.414-5.719-1.485-1.736-3.616-2.941-6.218-3.668-2.636-.701-7.053-1.058-13.338-1.058h-5.352v33.78zm61.446 45.613v-86.21h42.709v7.351h-34.873v26.96h34.873v7.335h-34.873v37.182h34.873v7.383h-42.709zM349.438 437.1c-4.266-3.691-8.643-6.391-13.109-8.151-4.498-1.784-9.193-2.681-14.116-2.681-11.175 0-20.216 3.529-27.2 10.646-6.939 7.023-10.432 16.219-10.432 27.568 0 5.718.852 10.818 2.555 15.383 1.759 4.531 4.361 8.607 7.809 12.09 3.454 3.531 7.401 6.136 11.866 7.877 4.423 1.865 9.186 2.757 14.314 2.757a41.94 41.94 0 0 0 14.47-2.553c4.69-1.698 9.197-4.199 13.418-7.474v9.196c-4.299 2.576-8.769 4.556-13.459 5.945-4.74 1.404-9.466 2.103-14.042 2.103-6.247 0-12.216-1.097-17.917-3.355-5.706-2.249-10.591-5.352-14.671-9.414-4.186-4.151-7.409-9.016-9.502-14.5-2.185-5.457-3.265-11.497-3.265-18.055 0-6.4 1.125-12.417 3.338-17.969 2.213-5.623 5.418-10.391 9.541-14.448 4.033-3.982 8.921-7.046 14.594-9.305 5.776-2.254 11.674-3.326 17.881-3.326 5.438 0 10.586.702 15.243 2.239 4.694 1.504 8.963 3.82 12.849 6.785l-.165 8.642zm25.953 70.457v-86.21h7.829v86.21h-7.829zm26.618 0l37.815-89.598 36.28 89.598h-8.536l-11.019-29.275h-35.147l-11.442 29.275h-7.951zm22.036-35.938h30.023l-14.739-37.514-15.284 37.514zm70.756 35.938v-86.21h7.836v78.827h29.554v7.383h-37.39zm58.807 0v-86.21h7.879v86.21h-7.879zm31.818-14.524l6.709-3.559c1.2 4.208 3.416 7.501 6.477 9.85 3.065 2.311 6.793 3.474 11.129 3.474 5.434 0 9.664-1.595 12.77-4.798 3.019-3.264 4.578-7.682 4.578-13.361 0-4.18-1.058-7.62-3.11-10.314-2.05-2.805-6.512-5.97-13.271-9.604-8.721-4.607-14.472-8.616-17.302-12.142-2.866-3.483-4.299-7.691-4.299-12.584 0-6.107 2.047-11.089 6.209-14.951 4.191-3.801 9.541-5.75 16.092-5.75 4.306 0 8.068.92 11.3 2.756 3.172 1.817 5.774 4.546 7.784 8.199l-6.04 3.64c-1.281-2.458-3.077-4.337-5.357-5.628-2.284-1.333-5.006-1.992-8.156-1.992-4.214 0-7.632 1.281-10.114 3.781-2.522 2.482-3.767 5.859-3.767 10.055 0 6.083 4.93 11.701 14.936 16.906 1.779.982 3.182 1.66 4.107 2.178 7.336 4.07 12.261 7.877 14.74 11.487 2.491 3.554 3.729 8.257 3.729 13.964 0 7.739-2.292 13.846-6.825 18.387-4.465 4.531-10.629 6.781-18.352 6.781-5.663 0-10.507-1.405-14.543-4.205-4.003-2.805-7.175-7.023-9.424-12.57zm90.926 14.524v-78.859h-23.703v-7.351h55.318v7.351h-23.788v78.859h-7.827zm33.133 0l37.819-89.598 36.309 89.598h-8.567l-10.989-29.275h-35.184l-11.442 29.275h-7.946zm22.036-35.938h30.021l-14.752-37.514-15.269 37.514zm114.516 35.938v-86.21H888.7v7.351h-34.834v26.96H888.7v7.335h-34.834v37.182H888.7v7.383h-42.663zm110.247 3.297l-30.269-69.124-6.551 65.826h-8.066l11.756-89.863 33.01 76.715 34.247-76.715 11.062 89.863h-8.026l-6.481-65.826-30.682 69.124zm134.725-3.297h-21.99v-86.21h24.51c9.615 0 16.412.466 20.284 1.414 3.846.973 7.146 2.553 9.86 4.831 3.174 2.613 5.627 5.94 7.29 9.855 1.64 3.962 2.482 8.356 2.482 13.124 0 5.178-.842 9.718-2.482 13.6-1.627 3.919-4.068 7.094-7.29 9.604-2.406 1.932-5.279 3.278-8.612 4.109-3.262.792-8.531 1.176-15.786 1.176h-8.266v28.497zm0-47.444h4.465c5.656 0 9.618-.74 11.862-2.283 2.206-1.551 3.305-4.236 3.305-7.938 0-3.621-1.099-6.217-3.271-7.725-2.199-1.51-6.043-2.269-11.663-2.269h-4.697v20.215zm162.27 47.444h-21.954l-5.08-37.275a173.844 173.844 0 0 1-.93-8.811c-.311-3.179-.593-6.7-.858-10.511-.541 3.641-1.597 8.186-3.215 13.68-.347 1.121-.551 1.955-.743 2.516l-11.755 40.402h-15.637l-11.721-40.402c-.183-.56-.377-1.395-.683-2.516-1.675-5.494-2.762-10.039-3.265-13.627-.189 3.24-.503 6.491-.813 9.693-.307 3.175-.7 6.401-1.125 9.576l-5.087 37.275h-21.798l13.263-86.21h23.237l13.082 44.446c.066.293.228.834.425 1.537 1.203 3.934 1.979 7.335 2.32 10.145.168-1.467.434-3.15.858-5.082a236.204 236.204 0 0 1 1.791-6.732l13.148-44.314h23.273l13.267 86.21zm21.685 0v-86.21h52.791v18.89h-29.895v14.989h28.198v18.443h-28.198v14.561h29.895v19.326h-52.791z" fill="currentColor"></path></svg>